<svg width="828" height="359" viewBox="0 0 828 359" fill="none" xmlns="http://www.w3.org/2000/svg">
<path d="M788.01 18.8063C789.118 16.2885 786.117 13.181 781.221 12.0686C777.491 11.2214 771.279 11.8774 770.417 14.4494C769.947 15.8555 772.349 19.9835 777.207 21.1866C782.065 22.3898 786.901 21.3241 788.01 18.8063Z" fill="black" fill-opacity="0.05"/>
<path d="M785.5 27.0502C782.77 26.8982 777.889 28.7698 777.914 30.9323C777.931 32.4224 781.265 34.8628 785.438 34.8815C789.611 34.8998 793.007 33.1619 793.024 30.9993C793.041 28.8368 789.661 27.2821 785.5 27.0502Z" fill="black" fill-opacity="0.05"/>
<path d="M822.166 11.9373C817.976 10.1293 815.374 11.2109 812.788 12.1172C810.369 12.9647 807.641 13.108 805.065 12.5795C800.505 11.6439 795.838 13.0562 793.304 15.9352C790.77 18.8141 790.874 22.5878 793.814 25.3649C795.474 26.9333 796.372 28.8711 796.283 30.8725C796.189 33.0126 795.886 35.2321 799.749 37.4109C804.518 40.0999 811.43 38.8467 814.716 35.112C815.642 34.0597 816.198 32.9052 816.407 31.7342C816.635 30.4665 817.227 29.2671 818.132 28.2255C819.054 27.1916 820.29 26.3112 821.756 25.6566C823.109 25.0518 824.306 24.2146 825.232 23.1623C828.519 19.4282 827.338 14.1689 822.166 11.9373Z" fill="black" fill-opacity="0.05"/>
<path d="M794.778 11.0896C797.419 9.32678 796.803 5.57442 793.402 2.70758C790.001 -0.158913 783.996 -0.173413 782.461 0.709009C779.656 2.32264 781.32 6.85973 783.838 9.09065C787.143 12.02 792.136 12.8523 794.778 11.0896Z" fill="black" fill-opacity="0.05"/>
<path d="M811.685 9.70705C814.324 8.83671 815.103 5.809 813.424 2.94389C811.744 0.0791199 807.435 -1.24762 805.604 -0.667624C802.948 0.17406 802.595 4.27648 803.865 6.09519C805.8 8.86812 809.045 10.5774 811.685 9.70705Z" fill="black" fill-opacity="0.05"/>
<path d="M732.992 12.6659C736.568 13.1785 740.397 10.465 741.257 6.56658C741.912 3.5972 740.189 -1.07316 736.572 -1.3887C734.595 -1.56132 729.296 0.829436 728.307 4.71058C727.319 8.59137 729.415 12.1532 732.992 12.6659Z" fill="black" fill-opacity="0.05"/>
<path d="M717.051 18.1423C719.997 17.8664 721.663 15.0704 721.422 11.8528C721.264 9.742 718.064 6.25442 715.124 6.56203C713.098 6.774 710.22 9.65396 710.752 12.8515C711.285 16.0495 714.104 18.4181 717.051 18.1423Z" fill="black" fill-opacity="0.05"/>
<path d="M743.741 24.8911C744.405 21.2734 741.859 17.8883 737.601 16.3327C733.343 14.7774 728.22 15.3605 724.831 17.9829C722.918 19.464 720.4 20.4096 717.663 20.6095C714.737 20.8232 711.675 20.8878 709.225 24.1375C706.201 28.1488 708.831 33.2741 714.354 35.292C715.91 35.8606 717.556 36.132 719.179 36.1361C720.935 36.1403 722.647 36.4341 724.186 36.9885C725.717 37.5557 727.08 38.3853 728.168 39.42C729.172 40.3753 730.472 41.1804 732.028 41.7486C737.551 43.7665 744.553 42.1598 746.9 37.9016C748.802 34.4514 746.982 32.6033 745.402 30.7435C743.924 29.0042 743.365 26.9342 743.741 24.8911Z" fill="black" fill-opacity="0.05"/>
<path d="M755.629 14.638C759.077 11.6507 758.295 7.04975 756.889 5.99299C754.317 4.06036 748.362 5.9405 745.661 8.16658C742.115 11.089 741.649 15.0247 744.401 16.8116C747.154 18.5986 752.181 17.6254 755.629 14.638Z" fill="black" fill-opacity="0.05"/>
<path d="M752.411 23.1102C748.896 24.9628 747.002 27.676 748.539 29.5813C750.076 31.4864 754.303 31.6783 757.979 30.0094C761.655 28.3409 762.885 24.8626 761.851 23.5387C760.35 21.6171 754.717 21.895 752.411 23.1102Z" fill="black" fill-opacity="0.05"/>
<path d="M663.398 0.365504C665.2 -0.556275 665.283 -2.92252 663.44 -4.8441C662.036 -6.3079 658.664 -7.73338 656.957 -6.71562C656.023 -6.1591 655.137 -3.46143 656.915 -1.50602C658.694 0.4494 661.596 1.28728 663.398 0.365504Z" fill="black" fill-opacity="0.05"/>
<path d="M658.06 3.70167C656.798 2.85964 653.472 2.40428 652.402 3.47071C651.666 4.20538 652.079 6.33858 654.114 7.52101C656.149 8.70344 658.682 8.80667 659.772 7.75197C660.861 6.69762 659.983 4.98526 658.06 3.70167Z" fill="black" fill-opacity="0.05"/>
<path d="M678.887 4.05472C677.279 3.78993 675.871 3.0929 674.873 2.11001C673.106 0.369331 670.114 -0.251064 667.433 0.447003C664.754 1.14507 662.918 3.02282 662.97 5.21023C662.999 6.44548 662.47 7.6469 661.426 8.60286C660.31 9.62476 659.052 10.627 659.857 12.7809C660.849 15.4392 664.862 16.7684 668.338 15.8628C669.318 15.6077 670.167 15.1982 670.855 14.6835C671.601 14.1263 672.49 13.7054 673.454 13.4496C674.422 13.2021 675.469 13.1185 676.513 13.2097C677.479 13.2939 678.484 13.2204 679.463 12.9653C682.94 12.0597 684.991 9.15143 683.572 6.60393C682.423 4.53977 680.608 4.33781 678.887 4.05472Z" fill="black" fill-opacity="0.05"/>
<path d="M679.54 2.56507C681.268 2.88096 683.163 1.61637 683.773 -0.259299C684.382 -2.13496 682.933 -3.99682 681.747 -4.22743C680.025 -4.56197 677.801 -2.65109 677.514 -1.40306C677.077 0.499533 677.812 2.24953 679.54 2.56507Z" fill="black" fill-opacity="0.05"/>
<path d="M586.856 19.6315C588.801 18.5337 588.731 15.8919 586.544 13.8198C584.878 12.2418 581.02 10.7825 579.186 11.9835C578.182 12.6405 577.38 15.6831 579.497 17.7952C581.615 19.907 584.909 20.7294 586.856 19.6315Z" fill="black" fill-opacity="0.05"/>
<path d="M576.98 27.9705C579.331 29.2102 582.163 29.2275 583.305 28.0095C584.447 26.7912 583.349 24.9159 581.117 23.5587C579.652 22.6684 575.911 22.2893 574.792 23.5197C574.021 24.3676 574.629 26.7308 576.98 27.9705Z" fill="black" fill-opacity="0.05"/>
<path d="M585.216 28.8935C584.042 30.0767 582.708 31.2425 583.752 33.6136C585.042 36.5398 589.608 37.8669 593.423 36.7225C594.498 36.4 595.418 35.9108 596.149 35.3101C596.941 34.6597 597.904 34.156 598.962 33.8335C600.026 33.5197 601.186 33.3864 602.358 33.4475C603.44 33.5042 604.556 33.383 605.631 33.0609C609.446 31.9164 611.533 28.5935 609.776 25.8078C608.352 23.5507 606.314 23.396 604.376 23.1464C602.563 22.913 600.945 22.1904 599.765 21.1326C597.675 19.2597 594.295 18.6839 591.354 19.566C588.413 20.448 586.496 22.6134 586.704 25.0504C586.821 26.4268 586.314 27.7871 585.216 28.8935Z" fill="black" fill-opacity="0.05"/>
<path d="M594.71 17.2572C597.128 17.0383 598.745 14.7339 598.322 12.1101C597.9 9.48662 594.51 7.709 593.18 7.75629C590.748 7.8426 589.313 10.8997 589.568 12.9034C589.904 15.5338 592.293 17.4761 594.71 17.2572Z" fill="black" fill-opacity="0.05"/>
<path d="M604.997 21.4591C606.947 21.7446 608.973 20.2612 609.524 18.1456C610.074 16.0303 608.33 14.0096 606.992 13.7987C605.048 13.4925 602.7 15.7092 602.465 17.1123C602.108 19.2507 603.048 21.1736 604.997 21.4591Z" fill="black" fill-opacity="0.05"/>
<path d="M638.456 95.0654C641.644 92.5082 643.995 87.154 640.766 85.0981C639.001 83.974 631.814 83.7234 627.518 87.0014C623.222 90.2794 622.187 94.7419 625.207 96.9687C628.227 99.1958 634.269 98.4225 638.456 95.0654Z" fill="black" fill-opacity="0.05"/>
<path d="M603.539 86.3912C601.303 89.7442 601.994 93.4016 605.084 94.5605C608.173 95.7195 612.19 93.819 614.726 90.5883C616.39 88.4685 616.293 83.5444 613.181 82.4189C611.038 81.6435 605.776 83.0387 603.539 86.3912Z" fill="black" fill-opacity="0.05"/>
<path d="M626.519 102.752C623.736 99.1854 618.274 97.27 612.739 98.1683C609.612 98.6758 606.361 98.3724 603.54 97.2414C600.524 96.032 597.504 94.6124 592.337 96.5723C585.958 98.9914 584.094 105.225 587.704 109.852C588.721 111.155 590.081 112.215 591.648 113.003C593.344 113.858 594.748 114.97 595.76 116.252C596.755 117.542 597.36 119.005 597.522 120.532C597.672 121.943 598.238 123.351 599.255 124.654C602.865 129.281 611.025 131.115 616.961 128.129C621.77 125.71 621.598 123.04 621.67 120.475C621.737 118.077 622.977 115.803 625.097 114.007C628.853 110.827 629.301 106.318 626.519 102.752Z" fill="black" fill-opacity="0.05"/>
<path d="M641.354 98.7457C635.406 99.8581 631.57 103.442 632.696 106.504C633.823 109.566 639.526 111.057 645.433 109.834C651.341 108.611 654.543 103.779 654.091 102.076C653.265 98.9605 645.884 97.8985 641.354 98.7457Z" fill="black" fill-opacity="0.05"/>
<path d="M635.023 116.479C630.026 116.571 625.858 118.281 625.707 120.868C625.556 123.457 629.481 125.688 634.475 125.852C639.469 126.016 643.653 123.244 643.791 121.462C643.992 118.876 638.301 116.419 635.023 116.479Z" fill="black" fill-opacity="0.05"/>
<path d="M509.223 94.5245C513.202 94.7993 517 91.5299 517.388 87.2031C517.683 83.9071 515.139 78.9426 511.144 78.886C508.959 78.8549 503.509 81.8888 502.979 86.2074C502.448 90.5256 505.243 94.2493 509.223 94.5245Z" fill="black" fill-opacity="0.05"/>
<path d="M492.583 101.776C495.762 101.24 497.185 98.0529 496.467 94.5574C495.995 92.264 492.006 88.7095 488.837 89.2798C486.653 89.6727 483.918 93.048 484.952 96.4987C485.987 99.9497 489.403 102.312 492.583 101.776Z" fill="black" fill-opacity="0.05"/>
<path d="M512.284 126.372C518.603 128.136 526.025 125.823 527.985 120.984C529.574 117.064 527.324 115.19 525.335 113.284C523.474 111.502 522.571 109.285 522.691 107.023C522.905 103.018 519.644 99.5233 514.772 98.1631C509.901 96.8032 504.385 97.8486 501.056 100.983C499.175 102.753 496.559 103.987 493.598 104.424C490.431 104.89 487.096 105.205 484.879 108.95C482.144 113.573 485.743 118.963 492.063 120.727C493.843 121.224 495.68 121.389 497.452 121.264C499.372 121.129 501.283 121.313 503.043 121.796C504.796 122.294 506.403 123.092 507.737 124.135C508.969 125.099 510.503 125.875 512.284 126.372Z" fill="black" fill-opacity="0.05"/>
<path d="M522.257 98.145C525.517 99.8778 530.87 98.4143 534.214 94.876C537.558 91.3377 536.051 86.3742 534.365 85.3316C531.282 83.4252 525.043 85.9537 522.408 88.6006C518.948 92.0754 518.997 96.4119 522.257 98.145Z" fill="black" fill-opacity="0.05"/>
<path d="M528.587 111.764C530.536 113.723 535.18 113.596 538.959 111.48C542.739 109.364 543.59 105.466 542.272 104.102C540.361 102.123 534.248 102.875 531.9 104.387C528.322 106.691 526.638 109.805 528.587 111.764Z" fill="black" fill-opacity="0.05"/>
<path d="M565.861 180.712C569.635 182.97 576.363 181.559 580.583 177.383C583.797 174.202 585.621 167.924 581.638 165.878C579.46 164.76 571.272 165.111 566.916 169.207C562.559 173.303 562.087 178.454 565.861 180.712Z" fill="black" fill-opacity="0.05"/>
<path d="M539.624 170.634C537.615 174.633 538.973 178.719 542.659 179.76C546.343 180.801 550.6 178.292 552.967 174.405C554.521 171.854 553.637 166.28 549.933 165.279C547.381 164.588 541.634 166.635 539.624 170.634Z" fill="black" fill-opacity="0.05"/>
<path d="M568.256 187.153C564.541 183.355 558.048 181.666 551.913 183.174C548.447 184.026 544.714 183.969 541.338 182.936C537.728 181.831 534.082 180.488 528.53 183.167C521.678 186.473 520.544 193.706 525.364 198.633C526.722 200.02 528.43 201.102 530.33 201.858C532.388 202.676 534.155 203.814 535.504 205.178C536.833 206.552 537.75 208.158 538.174 209.875C538.566 211.462 539.428 213.008 540.786 214.396C545.606 219.323 555.146 220.681 561.407 216.771C566.479 213.603 565.865 210.592 565.544 207.677C565.243 204.952 566.291 202.264 568.413 200.04C572.172 196.102 571.972 190.95 568.256 187.153Z" fill="black" fill-opacity="0.05"/>
<path d="M584.433 181.301C577.865 183.088 574.078 187.49 575.836 190.862C577.595 194.234 584.294 195.421 590.801 193.512C597.307 191.604 600.178 185.843 599.398 183.951C597.971 180.492 589.436 179.94 584.433 181.301Z" fill="black" fill-opacity="0.05"/>
<path d="M580.053 201.965C574.402 202.51 569.946 204.817 570.181 207.764C570.416 210.712 575.217 212.895 580.906 212.639C586.593 212.384 590.901 208.873 590.778 206.84C590.598 203.89 583.761 201.607 580.053 201.965Z" fill="black" fill-opacity="0.05"/>
<path d="M513.142 236.936C511.941 237.404 510.172 240.264 511.586 242.732C513.001 245.2 515.99 246.606 518.264 245.873C520.538 245.14 521.317 242.518 519.821 240.077C518.681 238.218 515.339 236.08 513.142 236.936Z" fill="black" fill-opacity="0.05"/>
<path d="M511.338 248.717C510.177 247.574 506.604 246.524 505.105 247.538C504.071 248.236 503.914 250.679 505.838 252.328C507.762 253.977 510.552 254.505 512.072 253.508C513.59 252.511 513.108 250.461 511.338 248.717Z" fill="black" fill-opacity="0.05"/>
<path d="M534.427 252.505C532.711 251.948 531.346 250.942 530.519 249.685C529.056 247.458 525.903 246.279 522.715 246.62C519.528 246.96 516.938 248.752 516.363 251.197C516.038 252.577 515.1 253.829 513.66 254.724C512.121 255.68 510.43 256.591 510.701 259.121C511.035 262.244 515.119 264.378 519.254 263.937C520.419 263.812 521.485 263.495 522.399 263.033C523.391 262.534 524.504 262.21 525.652 262.083C526.802 261.965 527.991 262.043 529.129 262.315C530.179 262.566 531.321 262.647 532.485 262.523C536.62 262.081 539.747 259.176 538.905 256.108C538.224 253.622 536.261 253.102 534.427 252.505Z" fill="black" fill-opacity="0.05"/>
<path d="M526.787 244.948C529.244 245.168 531.581 243.184 532.005 240.517C532.43 237.849 529.653 235.482 528.324 235.289C525.894 234.935 523.497 237.695 523.106 239.72C522.593 242.379 524.33 244.728 526.787 244.948Z" fill="black" fill-opacity="0.05"/>
<path d="M540.037 243.75C538.216 243.096 535.185 244.862 534.504 246.205C533.465 248.253 533.777 250.322 535.609 250.955C537.443 251.589 539.92 250.489 541.142 248.5C542.365 246.51 541.292 244.2 540.037 243.75Z" fill="black" fill-opacity="0.05"/>
<path d="M411.508 274.122C412.081 271.226 408.033 268.27 402.425 267.753C398.155 267.36 391.56 268.953 391.271 271.873C391.113 273.47 394.765 277.622 400.353 278.242C405.942 278.863 410.937 277.019 411.508 274.122Z" fill="black" fill-opacity="0.05"/>
<path d="M410.862 283.446C407.853 283.667 403.015 286.395 403.585 288.744C403.979 290.363 408.222 292.546 412.766 291.975C417.311 291.404 420.568 289.032 420.043 286.677C419.516 284.322 415.447 283.109 410.862 283.446Z" fill="black" fill-opacity="0.05"/>
<path d="M446.938 261.813C441.923 260.439 439.365 261.984 436.779 263.336C434.36 264.601 431.428 265.143 428.492 264.934C423.295 264.561 418.573 266.759 416.541 270.25C414.509 273.741 415.572 277.832 419.47 280.438C421.671 281.909 423.135 283.89 423.543 286.08C423.979 288.422 424.208 290.88 428.96 292.703C434.826 294.954 442.031 292.611 444.666 288.082C445.409 286.806 445.723 285.471 445.656 284.168C445.583 282.756 445.927 281.367 446.65 280.106C447.392 278.85 448.516 277.718 449.945 276.798C451.266 275.948 452.356 274.868 453.099 273.592C455.734 269.063 453.126 263.508 446.938 261.813Z" fill="black" fill-opacity="0.05"/>
<path d="M404.513 264.143C408.846 266.862 414.489 267.06 416.919 264.769C419.349 262.477 417.734 258.481 413.312 255.844C408.889 253.207 402.352 254.041 400.905 255.219C398.259 257.372 401.212 262.073 404.513 264.143Z" fill="black" fill-opacity="0.05"/>
<path d="M434.975 260.869C437.627 259.549 437.712 256.144 435.164 253.265C432.615 250.386 427.592 249.553 425.746 250.443C423.068 251.735 423.717 256.248 425.557 258.047C428.361 260.79 432.322 262.19 434.975 260.869Z" fill="black" fill-opacity="0.05"/>
<path d="M335.455 284.033C338.213 283.956 340.427 281.463 340.18 278.474C339.99 276.197 337.659 272.966 334.917 273.194C333.416 273.318 330.044 275.76 330.192 278.753C330.341 281.746 332.697 284.11 335.455 284.033Z" fill="black" fill-opacity="0.05"/>
<path d="M324.917 290.108C327.031 289.529 327.628 287.251 326.721 284.905C326.127 283.366 322.973 281.197 320.87 281.799C319.421 282.214 317.948 284.708 319.065 287.003C320.183 289.297 322.803 290.688 324.917 290.108Z" fill="black" fill-opacity="0.05"/>
<path d="M348.725 295.806C347.24 294.709 346.358 293.251 346.172 291.694C345.844 288.937 343.195 286.761 339.698 286.154C336.2 285.547 332.547 286.631 330.638 289C329.56 290.338 327.914 291.358 325.938 291.854C323.824 292.385 321.577 292.823 320.504 295.536C319.178 298.885 322.282 302.336 326.82 303.123C328.098 303.344 329.376 303.335 330.575 303.131C331.873 302.911 333.205 302.91 334.468 303.123C335.727 303.347 336.923 303.786 337.96 304.412C338.918 304.99 340.061 305.418 341.339 305.64C345.876 306.427 350.686 304.348 351.455 300.903C352.077 298.112 350.314 296.978 348.725 295.806Z" fill="black" fill-opacity="0.05"/>
<path d="M344.817 285.641C347.255 286.611 350.748 285.251 352.619 282.605C354.488 279.959 352.869 276.66 351.59 276.058C349.252 274.958 345.279 277.106 343.788 279.094C341.831 281.705 342.378 284.672 344.817 285.641Z" fill="black" fill-opacity="0.05"/>
<path d="M352.17 289.273C349.993 291.09 349.209 293.336 350.777 294.547C352.344 295.758 355.509 295.361 357.847 293.66C360.184 291.959 360.305 289.233 359.241 288.387C357.697 287.158 353.599 288.081 352.17 289.273Z" fill="black" fill-opacity="0.05"/>
<path d="M267.304 340.976C269.594 340.628 270.987 338.317 270.233 335.844C269.658 333.961 267.118 331.501 264.868 331.974C263.637 332.233 261.266 334.62 261.938 337.107C262.611 339.592 265.014 341.325 267.304 340.976Z" fill="black" fill-opacity="0.05"/>
<path d="M259.615 347.138C261.276 346.436 261.357 344.471 260.17 342.604C259.391 341.379 256.358 339.892 254.711 340.611C253.576 341.108 252.802 343.343 254.157 345.146C255.511 346.948 257.955 347.84 259.615 347.138Z" fill="black" fill-opacity="0.05"/>
<path d="M280.543 349.447C279.101 348.684 278.097 347.557 277.656 346.274C276.877 344.004 274.265 342.458 271.231 342.312C268.197 342.166 265.343 343.448 264.181 345.624C263.526 346.854 262.338 347.875 260.776 348.494C259.107 349.155 257.309 349.752 256.909 352.13C256.416 355.065 259.642 357.63 263.578 357.819C264.686 357.873 265.753 357.733 266.717 357.44C267.762 357.121 268.874 356.983 269.968 357.032C271.062 357.089 272.141 357.333 273.123 357.749C274.029 358.133 275.063 358.373 276.172 358.427C280.108 358.617 283.746 356.384 283.757 353.426C283.766 351.029 282.085 350.264 280.543 349.447Z" fill="black" fill-opacity="0.05"/>
<path d="M275.434 341.355C277.65 341.914 280.32 340.418 281.398 338.013C282.476 335.609 280.518 333.019 279.34 332.648C277.184 331.97 274.257 334.174 273.376 335.989C272.219 338.373 273.22 340.796 275.434 341.355Z" fill="black" fill-opacity="0.05"/>
<path d="M282.238 343.634C280.751 345.376 280.507 347.334 282.039 348.185C283.57 349.036 286.143 348.378 287.785 346.715C289.427 345.053 289.028 342.762 287.984 342.164C286.468 341.297 283.213 342.49 282.238 343.634Z" fill="black" fill-opacity="0.05"/>
<path d="M220.409 278.75C223.24 276.548 225.387 271.895 222.604 270.068C221.082 269.068 214.81 268.778 210.999 271.598C207.188 274.418 206.205 278.306 208.804 280.281C211.403 282.255 216.693 281.64 220.409 278.75Z" fill="black" fill-opacity="0.05"/>
<path d="M191.273 277.977C193.951 279.02 197.494 277.4 199.765 274.604C201.256 272.769 201.259 268.467 198.562 267.453C196.703 266.754 192.082 267.92 190.069 270.826C188.056 273.733 188.595 276.934 191.273 277.977Z" fill="black" fill-opacity="0.05"/>
<path d="M209.856 285.345C207.489 282.203 202.754 280.475 197.902 281.205C195.162 281.616 192.329 281.319 189.885 280.303C187.272 279.217 184.661 277.947 180.112 279.607C174.498 281.656 172.76 287.083 175.831 291.159C176.696 292.308 177.865 293.247 179.219 293.951C180.686 294.714 181.892 295.7 182.754 296.83C183.599 297.966 184.102 299.25 184.217 300.586C184.323 301.819 184.791 303.055 185.657 304.203C188.728 308.28 195.822 309.963 201.06 307.414C205.303 305.349 205.2 303.016 205.308 300.777C205.408 298.683 206.532 296.709 208.416 295.161C211.753 292.421 212.224 288.488 209.856 285.345Z" fill="black" fill-opacity="0.05"/>
<path d="M222.867 281.993C217.653 282.905 214.238 285.997 215.168 288.682C216.098 291.367 221.052 292.727 226.234 291.718C231.415 290.708 234.297 286.52 233.932 285.028C233.266 282.299 226.838 281.298 222.867 281.993Z" fill="black" fill-opacity="0.05"/>
<path d="M217.041 297.418C212.675 297.448 209.005 298.9 208.827 301.159C208.649 303.418 212.039 305.406 216.398 305.599C220.756 305.792 224.459 303.413 224.612 301.858C224.833 299.601 219.906 297.398 217.041 297.418Z" fill="black" fill-opacity="0.05"/>
<path d="M139.826 284.895C141.965 286.009 145.518 285.069 147.59 282.709C149.168 280.91 149.849 277.482 147.608 276.488C146.382 275.945 141.992 276.354 139.843 278.675C137.695 280.997 137.686 283.782 139.826 284.895Z" fill="black" fill-opacity="0.05"/>
<path d="M127.289 285.007C129.323 285.468 131.494 284.003 132.582 281.848C133.297 280.434 132.555 277.457 130.514 277.018C129.107 276.715 126.111 277.971 125.222 280.177C124.331 282.383 125.257 284.546 127.289 285.007Z" fill="black" fill-opacity="0.05"/>
<path d="M132.427 286.595C130.603 287.147 128.591 287.216 126.725 286.751C124.729 286.254 122.703 285.629 119.843 287.22C116.313 289.183 116.048 293.106 118.878 295.628C119.675 296.338 120.646 296.874 121.704 297.23C122.851 297.615 123.855 298.18 124.647 298.877C125.428 299.582 125.998 300.421 126.308 301.334C126.595 302.177 127.132 302.986 127.93 303.697C130.759 306.219 135.958 306.693 139.141 304.421C141.72 302.58 141.246 300.975 140.933 299.416C140.641 297.957 141.077 296.482 142.113 295.228C143.948 293.008 143.594 290.241 141.413 288.297C139.232 286.354 135.657 285.619 132.427 286.595Z" fill="black" fill-opacity="0.05"/>
<path d="M149.845 284.714C146.396 285.852 144.567 288.323 145.674 290.091C146.782 291.858 150.444 292.317 153.855 291.115C157.265 289.913 158.535 286.735 158.025 285.738C157.092 283.915 152.472 283.847 149.845 284.714Z" fill="black" fill-opacity="0.05"/>
<path d="M148.472 295.953C145.456 296.398 143.167 297.76 143.435 299.339C143.702 300.92 146.391 301.965 149.439 301.675C152.488 301.385 154.639 299.379 154.476 298.289C154.239 296.706 150.45 295.661 148.472 295.953Z" fill="black" fill-opacity="0.05"/>
<path d="M31.2555 310.238C34.2209 311.513 37.577 311.3 38.7513 309.763C39.9256 308.227 38.5152 305.892 35.5089 304.673C33.2193 303.744 29.0359 303.55 28.014 305.147C27.4552 306.02 28.2911 308.963 31.2555 310.238Z" fill="black" fill-opacity="0.05"/>
<path d="M35.6511 314.908C33.8909 314.534 30.363 315.27 29.9934 316.688C29.7384 317.665 31.4857 319.597 34.2135 320.027C36.9414 320.458 39.474 319.661 39.8713 318.248C40.2676 316.834 38.3334 315.477 35.6511 314.908Z" fill="black" fill-opacity="0.05"/>
<path d="M56.1567 307.871C54.4227 308.183 52.6114 308.003 51.0201 307.399C48.2016 306.329 44.8951 306.786 42.7238 308.415C40.5525 310.045 39.9472 312.526 41.3756 314.638C42.182 315.831 42.4237 317.19 42.0094 318.491C41.5657 319.882 40.9723 321.304 43.1119 323.118C45.7536 325.356 50.5004 325.229 53.318 323.114C54.1111 322.519 54.6809 321.819 55.0266 321.073C55.4013 320.266 56.003 319.541 56.7818 318.95C57.569 318.366 58.5356 317.914 59.6114 317.632C60.6043 317.372 61.5373 316.944 62.3314 316.349C65.1485 314.234 65.3133 310.674 62.3268 308.694C59.9074 307.09 58.0118 307.537 56.1567 307.871Z" fill="black" fill-opacity="0.05"/>
<path d="M38.3464 297.361C36.2226 298.136 36.502 301.272 37.7522 302.985C39.3932 305.234 42.5132 306.279 44.5556 305.391C46.599 304.502 46.865 301.984 45.1499 299.767C43.4357 297.55 39.5078 296.938 38.3464 297.361Z" fill="black" fill-opacity="0.05"/>
<path d="M53.7445 298.783C51.8558 299.068 50.8928 301.717 51.3996 303.035C52.1725 305.044 53.9917 306.488 55.8739 306.183C57.7561 305.878 58.8061 303.975 58.2178 301.931C57.6304 299.888 55.0453 298.587 53.7445 298.783Z" fill="black" fill-opacity="0.05"/>
<path d="M22.7028 194.503C26.4414 193.585 28.1708 189.517 26.2665 185.494C24.8151 182.429 19.9303 178.689 16.2901 179.808C14.3002 180.421 10.956 184.76 12.7273 188.817C14.4972 192.875 18.9641 195.421 22.7028 194.503Z" fill="black" fill-opacity="0.05"/>
<path d="M11.4627 205.929C14.0561 204.512 13.6814 201.215 11.2109 198.267C9.58965 196.332 4.13262 194.29 1.56683 195.734C-0.201696 196.729 -0.914724 200.581 1.8177 203.396C4.55105 206.211 8.86879 207.345 11.4627 205.929Z" fill="black" fill-opacity="0.05"/>
<path d="M36.7946 221.692C38.4103 222.202 40.2005 222.453 42.0684 222.38C48.6983 222.122 54.1986 217.857 53.4492 212.91C52.8421 208.902 49.8326 207.868 47.0426 206.729C44.4326 205.663 42.4606 203.925 41.3913 201.846C39.4971 198.165 34.7292 195.963 29.6183 196.162C24.5079 196.361 20.0695 198.922 18.6937 202.73C17.9171 204.881 16.1946 206.763 13.7467 208.025C11.1284 209.375 8.27859 210.637 8.22704 214.671C8.16489 219.65 14.2249 223.465 20.8548 223.207C22.7233 223.134 24.4688 222.745 26.0058 222.113C27.6698 221.428 29.4926 221.034 31.3344 220.955C33.177 220.89 35.0454 221.14 36.7946 221.692Z" fill="black" fill-opacity="0.05"/>
<path d="M36.3808 193.948C40.2295 194.559 44.3042 191.667 45.4821 187.49C46.6596 183.313 42.7124 179.269 40.6456 178.821C36.8664 178.003 32.5468 182.116 31.5443 185.28C30.2282 189.434 32.5321 193.338 36.3808 193.948Z" fill="black" fill-opacity="0.05"/>
<path d="M49.194 204.399C51.9762 205.598 56.1056 204.122 58.4183 201.102C60.7309 198.083 59.4687 194.311 57.5681 193.465C54.8089 192.237 49.6769 194.708 48.3429 196.762C46.3106 199.893 46.4119 203.201 49.194 204.399Z" fill="black" fill-opacity="0.05"/>
</svg>
