<svg id="svg" fill="none" xmlns="http://www.w3.org/2000/svg">
    <path d="M20.625 10.43h.022c.373 0 .71.155.95.403.249.242.403.578.403.951v.043c0 .374-.154.71-.403.951a1.322 1.322 0 0 1-.95.403h-.183l-1.237 7.113c-.052.32-.22.61-.47.814l-.003.002c-.233.2-.537.322-.87.322H4.114c-.332 0-.637-.122-.871-.323l.001.001a1.327 1.327 0 0 1-.471-.808l-.001-.008-1.236-7.114h-.183c-.373 0-.71-.154-.95-.403a1.32 1.32 0 0 1-.403-.95v-.044c0-.373.154-.71.403-.95.241-.25.578-.403.95-.403h19.273ZM5.207 19.024a.661.661 0 0 0 .466-.24v-.002a.66.66 0 0 0 .168-.502v.003l-.344-4.47a.66.66 0 0 0-.241-.465v-.001a.66.66 0 0 0-.503-.167h.002a.66.66 0 0 0-.466.24v.001a.66.66 0 0 0-.167.503v-.003l.344 4.47c.011.173.09.334.22.45a.666.666 0 0 0 .46.184h.008l.053-.001Zm4.415-.687v-4.475a.655.655 0 0 0-.203-.477.658.658 0 0 0-.478-.203H8.93a.654.654 0 0 0-.477.203.659.659 0 0 0-.204.478v4.482c0 .187.078.356.204.476a.66.66 0 0 0 .477.204h.013a.656.656 0 0 0 .477-.204.658.658 0 0 0 .207-.48v-.005l-.004.001Zm4.126 0v-4.475a.654.654 0 0 0-.204-.477.659.659 0 0 0-.478-.203h-.012a.654.654 0 0 0-.477.203.657.657 0 0 0-.204.478v4.482c0 .187.078.356.204.476a.659.659 0 0 0 .478.204h.012a.657.657 0 0 0 .477-.204.658.658 0 0 0 .207-.48v-.005l-.003.001Zm3.78.053.345-4.469a.665.665 0 0 0-.167-.5.664.664 0 0 0-.465-.242h-.002a.665.665 0 0 0-.5.167.664.664 0 0 0-.242.464v.003l-.344 4.469a.664.664 0 0 0 .167.5h-.001a.665.665 0 0 0 .465.242h.064a.67.67 0 0 0 .46-.183.666.666 0 0 0 .224-.452v-.003l-.003.004Z" fill="#330072"/>
    <path fill-rule="evenodd" clip-rule="evenodd" d="M16.52 6.83c-.1-.133-.099-.202-.097-.326v-.107c-.002-.12.196-.36.389-.594.148-.18.294-.356.344-.473a2.646 2.646 0 0 0 .158-1.601 3.793 3.793 0 0 1-.122-1.33c.212-.73.21-1.505-.005-2.233-.316-.504-1.02.205-1.785 1.244l-.002.002c-.116.156-.152.206-.477.047a3.101 3.101 0 0 0-2.375-.06l-.03.01c-.156.052-.333.111-.45-.03-.82-.99-1.563-1.656-1.851-1.134a3.982 3.982 0 0 0 .117 2.23c.064.444.047.896-.048 1.334a2.88 2.88 0 0 0 .132 1.33c.048.162.155.317.268.481.157.227.324.47.36.767.025.2-.244.68-1.12.848a4.048 4.048 0 0 0-1.918.878c-.43.461-.804.969-1.117 1.512h10.358a6.4 6.4 0 0 0-.031-1.512 3.844 3.844 0 0 0-.697-1.283Z" fill="#330072"/>
</svg>