<svg width="1440" height="799" viewBox="0 0 1440 799" fill="none" xmlns="http://www.w3.org/2000/svg">
<mask id="mask0_1078_11049" style="mask-type:alpha" maskUnits="userSpaceOnUse" x="0" y="0" width="1440" height="799">
<path d="M0 0H1440V745L722.223 798.335C720.743 798.445 719.257 798.445 717.777 798.335L0 745V0Z" fill="#FBF7FF"/>
</mask>
<g mask="url(#mask0_1078_11049)">
<path d="M146 639C146 719.634 80.6336 785 0 785C-80.6336 785 -146 719.634 -146 639C-146 558.366 -80.6336 493 0 493C80.6336 493 146 558.366 146 639ZM-140.16 639C-140.16 716.408 -77.4082 779.16 0 779.16C77.4082 779.16 140.16 716.408 140.16 639C140.16 561.592 77.4082 498.84 0 498.84C-77.4082 498.84 -140.16 561.592 -140.16 639Z" fill="#F2E2FF"/>
<circle cx="1473" cy="83" r="146" fill="#F2E2FF"/>
<path d="M1586 687C1586 767.634 1520.63 833 1440 833C1359.37 833 1294 767.634 1294 687C1294 606.366 1359.37 541 1440 541C1520.63 541 1586 606.366 1586 687ZM1308.6 687C1308.6 759.57 1367.43 818.4 1440 818.4C1512.57 818.4 1571.4 759.57 1571.4 687C1571.4 614.43 1512.57 555.6 1440 555.6C1367.43 555.6 1308.6 614.43 1308.6 687Z" fill="#F2E2FF"/>
<path fill-rule="evenodd" clip-rule="evenodd" d="M82.6253 194.519C76.1499 205.734 65.1853 211.527 58.1354 207.457C51.0854 203.386 50.6197 190.995 57.0951 179.779C63.5706 168.563 74.5352 162.77 81.5851 166.84C88.6351 170.911 89.1008 183.303 82.6253 194.519ZM49.9917 280.819C62.9247 313.632 129.336 304.86 92.8484 247.583C81.1948 229.29 60.7696 217.498 39.1006 216.552C-28.7461 213.591 -3.13752 275.491 31.746 270.285C38.1407 269.33 47.6209 274.804 49.9917 280.819ZM91.7886 226.886C98.8385 230.957 109.803 225.164 116.279 213.948C122.754 202.732 122.288 190.341 115.238 186.27C108.188 182.2 97.2238 187.993 90.7484 199.208C84.2729 210.424 84.7386 222.816 91.7886 226.886ZM39.7232 199.147C33.8028 209.402 23.8078 214.715 17.3987 211.015C10.9897 207.315 10.5935 196.002 16.514 185.748C22.4344 175.493 32.4294 170.18 38.8385 173.88C45.2476 177.58 45.6437 188.893 39.7232 199.147ZM109.075 263.944C115.484 267.645 125.479 262.331 131.4 252.077C137.32 241.822 136.924 230.51 130.515 226.81C124.106 223.109 114.111 228.423 108.19 238.677C102.27 248.932 102.666 260.244 109.075 263.944Z" fill="#410075" fill-opacity="0.1"/>
<path fill-rule="evenodd" clip-rule="evenodd" d="M23.2874 64.1161C24.7673 69.6392 23.1526 74.8707 19.681 75.8009C16.2093 76.7311 12.1953 73.0079 10.7153 67.4848C9.23543 61.9616 10.8501 56.7302 14.3217 55.7999C17.7934 54.8697 21.8075 58.593 23.2874 64.1161ZM50.1854 101.262C56.1481 98.87 60.3814 92.6654 58.1434 86.9887C50.1884 66.8106 5.05179 78.9049 8.25161 100.357C9.15181 106.392 15.9203 109.649 22.2803 108.74C28.6807 107.824 44.1848 103.67 50.1854 101.262ZM36.2533 71.3604C39.7249 70.4301 41.3396 65.1987 39.8596 59.6756C38.3797 54.1525 34.3657 50.4292 30.894 51.3594C27.4223 52.2897 25.8077 57.5211 27.2876 63.0442C28.7675 68.5673 32.7816 72.2906 36.2533 71.3604ZM11.3389 78.955C12.6919 84.0047 11.2303 88.7838 8.07424 89.6295C4.91817 90.4751 1.2628 87.0671 -0.0902584 82.0174C-1.44332 76.9677 0.0182978 72.1886 3.17436 71.3429C6.33042 70.4972 9.98579 73.9053 11.3389 78.955ZM53.2193 77.5329C56.3753 76.6872 57.8369 71.908 56.4839 66.8583C55.1308 61.8086 51.4754 58.4006 48.3194 59.2463C45.1633 60.0919 43.7017 64.8711 45.0548 69.9208C46.4078 74.9705 50.0632 78.3785 53.2193 77.5329Z" fill="#410075" fill-opacity="0.1"/>
</g>
</svg>
